<svg xmlns="http://www.w3.org/2000/svg" viewBox="0 0 256 256" enable-background="new 0 0 256 256"><style type="text/css">.st0{fill:#BB9D6E;}</style><path class="st0" d="M45.6 245.7c2.9.3 5.4-1.7 6-4.5-.3 3.1 2 5.8 5.1 6.1 3.1.3 5.8-2 6.1-5.1.3-3.3 1.1-11.7 1.4-14.7h.2c20 1.6 42.5-13.2 47-44.8 1.9-13.7-1.6-27.3-9.9-38.3-5.6-7.5-13.1-13.1-21.5-16.6.6-1.2 1.1-2.5 1.3-4 .5-3.6-.4-7.2-2.6-10.1-2.2-2.9-5.4-4.8-9-5.3-6.7-.9-13.2 3.2-15 9.8-.2.6-.3 1.2-.4 1.8-.2 1.4-.1 2.8.1 4.2-1.5.2-2.9.4-4.4.7l-3.6-9.7c3.6-2.5 6.3-6.2 7.6-10.6.6-2.2.9-4.4.7-6.6l-1.6-24.8c-.2-2.3-.7-4.5-1.6-6.6l13.3-10.9c.3.2.6.4.9.5 4.7 2.3 10 2.7 15 1l23.5-8c6.1-2.1 10.8-7 12.5-13.2v-.1l11.6-.2c1.9 4.8 5.7 8.7 10.7 10.8l22.9 9.4c4.8 2 10 2 14.8.1l5.2 6.5c-1.1 1.6-1.9 3.4-2.5 5.4-.7 2.6-.9 5.3-.6 8l3.4 24.6c1 7.3 6 13.2 12.5 15.7l-.3 8.1c-17.2.6-33.8 9.7-43.1 25.6-2.9 5.1-5.1 10.1-6.4 14.9-6.2 21.6 2 40.3 15.7 49.3.1 0 .1.1.2.2-1.6 2.6-6.1 9.8-7.9 12.6-1.7 2.6-.9 6.1 1.7 7.7 2.6 1.7 6.1.9 7.7-1.7-.2.4-.4.7-.5 1.1-.7 2.3.2 4.9 2.4 6.3 2.6 1.7 6.1.9 7.7-1.7.7-1.1 6.2-9.8 8.1-13 .1 0 .2 0 .2.1 17.9 9 44.4 3.7 60.4-23.9 12.1-20.8 7.9-46.5-8.4-62.7 1-.9 2-2 2.7-3.2.6-1 1-2 1.3-3.1 1.7-6-.9-12.4-6.3-15.5-6.5-3.8-14.9-1.6-18.7 5-.6 1-1 2-1.3 3.1l-.2.8c-1.4-.4-2.9-.7-4.3-1l.3-8.3c7-1.6 12.6-6.8 14.6-13.7.7-2.6.9-5.3.6-8l-3.4-24.6c-1.5-10.7-11.4-18.2-22.1-16.7-1.8.2-3.5.8-5.1 1.4l-5-6.3c.8-1.2 1.5-2.4 2-3.7 4.2-10.1-.8-21.5-10.7-25.6l-22.9-9.4c-4.8-2-10.2-2-15 0-4.8 2-8.6 5.8-10.6 10.6-.3.7-.5 1.4-.7 2.1-.1.5-.2 1-.3 1.4l-10.9.2c0-.1-.1-.2-.1-.4-1.7-5-5.2-9-9.9-11.3-4.7-2.3-10-2.7-15-1l-23.2 8.1c-6.1 2.1-10.8 7-12.5 13.2-1.1 3.8-1 7.9.3 11.7.3.9.7 1.8 1.2 2.7l-12.8 10.4c-3.5-2.3-7.7-3.4-11.9-3.1-8.2.5-15.3 6.2-17.6 14.1-.6 2.2-.9 4.4-.7 6.6l1.6 24.8c.7 10.6 9.7 18.6 20.2 18.3l3.5 9.5c-13.7 6.1-24.5 18-28.8 33-.6 2.3-1.1 4.6-1.5 7-4.5 31.6 13.1 52.1 32.7 56.1.1 0 .2 0 .2.1-.4 3.7-1.4 14-1.5 15.2-.2 3.1 2.1 5.8 5.2 6.1zm185.4-49.6c-9.5 16.3-28.2 28.3-45.6 19.5-5.3-2.7-11.6-1.2-14.5 3.4 2.6-4.7.8-10.9-4.2-14.2-16.3-10.8-15.2-32.9-5.7-49.3 11.2-19.3 36-25.9 55.3-14.7 19.3 11.2 25.9 36 14.7 55.3zm-9.9-68.3c.7-1.2 2.2-1.6 3.3-.9 1 .6 1.4 1.7 1.1 2.8l-.2.6c-.7 1.2-2.2 1.6-3.3.9-1.2-.7-1.6-2.2-.9-3.4zm-14.6-55.7l3.4 24.6c.2 1.2.1 2.3-.2 3.4-.6 1.9-1.8 3.6-3.4 4.6l.3-7.9c.1-3.1-2.3-5.7-5.4-5.8-2.6-.1-4.9 1.6-5.6 4.1-.1.4-.2.9-.2 1.4l-.2 6.7c-.9-1.2-1.6-2.6-1.8-4.1l-3.4-24.8c-.1-.6-.1-1.2-.1-1.7l3.9 4.9c1.9 2.4 5.4 2.8 7.9.9 2.4-1.9 2.9-5.4.9-7.9l-4.5-5.7c4.2 0 7.9 3 8.4 7.3zm-63.2-51.5c2.1-.9 4.3-.9 6.4 0l22.9 9.4c3.6 1.5 5.7 5.2 5.1 9l-2.7-3.4c-1.9-2.4-5.4-2.8-7.9-.9-1 .8-1.6 1.8-1.9 2.9-.5 1.7-.2 3.5 1 5l2.8 3.6c-.9-.1-1.9-.2-2.7-.6l-22.9-9.4c-.5-.2-1-.5-1.4-.7l4.2-.1c3.1-.1 5.5-2.6 5.5-5.7-.1-3.1-2.6-5.6-5.7-5.5l-6.6.1c.8-1.7 2.1-3 3.9-3.7zm-71.7 10l23.5-8c2.1-.7 4.4-.6 6.4.4.9.5 1.7 1.1 2.4 1.8l-4.4.2c-2.5 0-4.6 1.7-5.3 4-.1.5-.2 1.1-.2 1.7.1 3.1 2.6 5.6 5.7 5.5l4.4-.1c-1 1.1-2.2 1.9-3.6 2.4l-23.5 8c-.5.2-1.1.3-1.7.4l4.1-3.4c2.4-2 2.7-5.5.8-7.9-2-2.4-5.5-2.7-7.9-.8l-6.2 5.2c-.6-4 1.7-8.1 5.5-9.4zm-44.8 69.1l-1.6-24.8c-.3-4.6 3.3-8.6 7.8-8.9h1.4l-3.8 3.1c-.9.7-1.5 1.7-1.8 2.8-.5 1.7-.2 3.6 1.1 5.1 2 2.4 5.5 2.7 7.9.8l4.2-3.5 1.6 24.2c.1 1 0 1.9-.3 2.8-.2.8-.6 1.5-1 2.2l-2-5.4c-1.1-2.9-4.3-4.4-7.2-3.3-1.8.6-3 2.1-3.5 3.7-.3 1.1-.3 2.3.1 3.5l1.6 4.5c-2.5-1.3-4.3-3.8-4.5-6.8zm39 23.6c-.2-.3-.6-.9-.5-1.8.2-1.3 1.4-2.3 2.8-2.1.9.1 1.4.6 1.6.9.2.3.6.9.5 1.8 0 .1 0 .2-.1.3-.3 1.2-1.5 1.9-2.7 1.7-.9 0-1.4-.5-1.6-.8zm-45.7 46.5c3.1-22.1 23.6-37.5 45.7-34.4 10.7 1.5 20.2 7.1 26.7 15.7s9.3 19.3 7.7 30c-3.5 24.8-20.2 36.4-35 35.2-5.9-.5-11.2 3.3-12.1 8.6.6-5.3-3.4-10.4-9.3-11.6-19-3.8-26.3-24.8-23.7-43.5z" id="Your_Icon_2_"/></svg>