<svg xmlns="http://www.w3.org/2000/svg" viewBox="0 0 256 256" enable-background="new 0 0 256 256"><style type="text/css">.st0{fill:#87724F;}</style><path class="st0" d="M227.9 176.3c-1.8 0-3.3.6-4.7 1.5l-29.6-49.8 29.5-49.7c1.4.8 3 1.5 4.7 1.5 5.2 0 9.4-4.2 9.4-9.4s-4.2-9.4-9.4-9.4-9.4 4.2-9.4 9.4v.1l-57.7.7-28.3-50.4c2.8-1.6 4.9-4.6 4.9-8.1 0-5.2-4.2-9.4-9.4-9.4s-9.4 4.2-9.4 9.4c0 3.5 2 6.5 4.9 8.1l-28.2 50.4-57.7-.7v-.1c0-5.2-4.2-9.4-9.4-9.4s-9.4 4.2-9.4 9.4 4.2 9.4 9.4 9.4c1.7 0 3.3-.6 4.7-1.5l29.6 49.7-29.5 49.7c-1.4-.8-3-1.5-4.7-1.5-5.2 0-9.4 4.2-9.4 9.4s4.2 9.4 9.4 9.4 9.4-4.2 9.4-9.4v-.1l57.7-.7 28.3 50.4c-2.8 1.6-4.9 4.5-4.9 8.1 0 5.2 4.2 9.4 9.4 9.4s9.4-4.2 9.4-9.4c0-3.5-2-6.4-4.9-8.1l28.3-50.4 57.7.7v.1c0 5.2 4.2 9.4 9.4 9.4s9.4-4.2 9.4-9.4c-.2-5.1-4.4-9.3-9.5-9.3z" id="Your_Icon_1_"/></svg>